<?xml version="1.0" encoding="utf-8"?>
<svg version="1.1" id="Ebene_1" x="0px" y="0px" viewBox="0 0 179 245.3" enable-background="new -566.7274 -103 1664.797 507.0414" width="12px" xmlns="http://www.w3.org/2000/svg">
  <g transform="matrix(1, 0, 0, 1, 255.659012, 121.868736)">
    <path stroke-linejoin="round" d="M -141.191 69.875 C -152.989 46.455 -151.797 4.735 -150.811 -11.429 C -132.152 -12.709 -118.733 -16.242 -118.733 -20.407 C -118.733 -24.495 -131.65 -27.977 -149.767 -29.313 C -138.197 -35.277 -130.279 -47.331 -130.279 -61.243 C -130.279 -81.078 -146.351 -97.156 -166.186 -97.156 C -186.02 -97.156 -202.092 -81.078 -202.092 -61.243 C -202.092 -47.331 -194.171 -35.277 -182.604 -29.313 C -200.719 -27.977 -213.641 -24.495 -213.641 -20.407 C -213.641 -16.242 -200.215 -12.709 -181.56 -11.429 C -180.571 4.737 -179.379 46.455 -191.177 69.875 C -214.299 74.523 -230.525 85.436 -230.525 98.147 L -101.85 98.147 C -101.85 85.436 -118.052 74.52 -141.176 69.863 L -141.191 69.875 Z" style="stroke: rgb(7, 7, 7); paint-order: stroke; stroke-width: 50px; fill: rgb(65, 105, 225);"/>
  </g>
</svg>